<?xml version="1.0" encoding="utf-8"?>
<!-- Generator: Adobe Illustrator 18.1.1, SVG Export Plug-In . SVG Version: 6.00 Build 0)  -->
<svg version="1.1" xmlns="http://www.w3.org/2000/svg" xmlns:xlink="http://www.w3.org/1999/xlink" x="0px" y="0px"
	 viewBox="0 0 134 57" enable-background="new 0 0 134 57" xml:space="preserve">
<a xmlns="http://www.w3.org/2000/svg" xlink:href="http://appetiteforchange.eu" xmlns:xlink="http://www.w3.org/1999/xlink" xlink:show="new">
<g id="Layer_1">
	<rect y="0.1" fill="#FFFFFF" width="134" height="57"/>
	<g>
		<g>
			<path fill="#FFB819" d="M25,14.1L22,21.6h2l0.6-1.6h3.2l0.6,1.6h2l-3.1-7.6H25z M25.2,18.4l1-2.6l1,2.6H25.2z"/>
			<path fill="#FFB819" d="M36,16.2c-0.8,0-1.3,0.3-1.6,0.7v-0.6h-1.7v7.5h1.8v-2.7c0.3,0.4,0.8,0.6,1.6,0.6c1.5,0,2.6-1.2,2.6-2.8
				C38.6,17.4,37.5,16.2,36,16.2z M35.5,20.2c-0.7,0-1.2-0.5-1.2-1.2c0-0.7,0.5-1.2,1.2-1.2c0.7,0,1.2,0.5,1.2,1.2
				C36.7,19.7,36.3,20.2,35.5,20.2z"/>
			<path fill="#FFB819" d="M43.3,16.2c-1.7,0-2.9,1.2-2.9,2.8c0,1.7,1.2,2.8,3,2.8c1,0,1.9-0.3,2.5-0.9l-1.2-1
				c-0.4,0.3-0.8,0.5-1.2,0.5c-0.6,0-1.1-0.3-1.2-0.8h3.8c0-0.1,0-0.4,0-0.5C46.2,17.3,45,16.2,43.3,16.2z M42.3,18.4
				c0.1-0.5,0.5-0.8,1-0.8c0.5,0,0.9,0.3,1,0.8H42.3z"/>
			<path fill="#FFB819" d="M48.9,16.3h-1.1v1.5h1.1v1.8c0,1.3,0.7,2.2,2.2,2.2c0.9,0,1.5-0.2,2-0.6l-0.6-1.3c-0.3,0.2-0.6,0.3-1,0.3
				c-0.5,0-0.8-0.2-0.8-0.8v-1.6h1.9v-1.5h-1.9"/>
			<polygon fill="#FFB819" points="57.8,18.7 56.5,16.3 54.4,16.3 56.8,20.5 54.9,23.8 56.8,23.8 61,16.3 59,16.3 			"/>
			<path fill="#FFB819" d="M63,16.3H62v1.5H63v1.8c0,1.3,0.7,2.2,2.2,2.2c0.9,0,1.5-0.2,2-0.6l-0.6-1.3c-0.3,0.2-0.6,0.3-1,0.3
				c-0.5,0-0.8-0.2-0.8-0.8v-1.6h1.9v-1.5h-1.9"/>
		</g>
		<path fill="#FFB819" d="M64.3,33.6h-1.7V33c-0.3,0.4-0.9,0.7-1.6,0.7c-1.5,0-2.6-1.2-2.6-2.8c0-1.6,1.1-2.8,2.6-2.8
			c0.8,0,1.3,0.3,1.6,0.7v-0.6h1.7V33.6z M60.1,30.9c0,0.7,0.5,1.2,1.2,1.2c0.7,0,1.2-0.5,1.2-1.2c0-0.7-0.5-1.2-1.2-1.2
			C60.6,29.7,60.1,30.2,60.1,30.9z"/>
		<path fill="#FFB819" d="M70.6,28.8v-3h1.8v7.8h-1.7V33c-0.3,0.4-0.9,0.7-1.6,0.7c-1.5,0-2.6-1.2-2.6-2.8c0-1.6,1.1-2.8,2.6-2.8
			C69.8,28.1,70.3,28.4,70.6,28.8z M68.3,30.9c0,0.7,0.5,1.2,1.2,1.2c0.7,0,1.2-0.5,1.2-1.2c0-0.7-0.5-1.2-1.2-1.2
			C68.8,29.7,68.3,30.2,68.3,30.9z"/>
		<path fill="#FFB819" d="M76.7,35.7h-2l1.9-3.3l-2.4-4.1h2.1l1.3,2.4l1.3-2.4h2L76.7,35.7z"/>
		<path fill="#FFB819" d="M95.4,33.6h-1.7V33c-0.3,0.4-0.9,0.7-1.6,0.7c-1.5,0-2.6-1.2-2.6-2.8c0-1.6,1.1-2.8,2.6-2.8
			c0.8,0,1.3,0.3,1.6,0.7v-0.6h1.7V33.6z M91.3,30.9c0,0.7,0.5,1.2,1.2,1.2c0.7,0,1.2-0.5,1.2-1.2c0-0.7-0.5-1.2-1.2-1.2
			C91.8,29.7,91.3,30.2,91.3,30.9z"/>
		<path fill="#FFB819" d="M99.7,33.6h-1.8v-7.8h1.8V33.6z"/>
		<path fill="#FFB819" d="M107.5,30.1v3.5h-1.8v-2.9c0-0.6-0.3-1-0.9-1c-0.5,0-0.9,0.3-0.9,1v2.9h-1.8v-5.3h1.7v0.7
			c0.4-0.6,0.9-0.8,1.7-0.8C106.7,28.1,107.5,28.9,107.5,30.1z"/>
		<path fill="#FFB819" d="M115.9,35.3c-0.3,0.3-0.9,0.5-1.6,0.5c-0.8,0-1.5-0.4-1.5-1.1c0-0.5,0.4-0.9,0.9-1.2V33
			c-0.3,0.4-0.9,0.7-1.6,0.7c-1.5,0-2.6-1.2-2.6-2.8c0-1.6,1.1-2.8,2.6-2.8c0.8,0,1.3,0.3,1.6,0.7v-0.6h1.7v5.3H115
			c-0.6,0.3-0.8,0.5-0.8,0.7c0,0.2,0.1,0.3,0.3,0.3c0.1,0,0.3,0,0.4-0.2L115.9,35.3z M111.3,30.9c0,0.7,0.5,1.2,1.2,1.2
			c0.7,0,1.2-0.5,1.2-1.2c0-0.7-0.5-1.2-1.2-1.2C111.8,29.7,111.3,30.2,111.3,30.9z"/>
		<path fill="#FFB819" d="M61.2,45.5h-1.7v-0.6c-0.3,0.4-0.9,0.7-1.6,0.7c-1.5,0-2.6-1.2-2.6-2.8c0-1.6,1.1-2.8,2.6-2.8
			c0.8,0,1.3,0.3,1.6,0.7v-0.6h1.7V45.5z M57.1,42.8c0,0.7,0.5,1.2,1.2,1.2c0.7,0,1.2-0.5,1.2-1.2c0-0.7-0.5-1.2-1.2-1.2
			C57.6,41.6,57.1,42.2,57.1,42.8z"/>
		<path fill="#FFB819" d="M68.9,42v3.5h-1.8v-2.9c0-0.6-0.3-1-0.9-1c-0.5,0-0.9,0.3-0.9,1v2.9h-1.8v-5.3h1.7v0.7
			c0.4-0.6,0.9-0.8,1.7-0.8C68,40,68.9,40.8,68.9,42z"/>
		<path fill="#FFB819" d="M76.2,47.1c-0.4,0.4-1,0.6-1.7,0.6c-1,0-1.7-0.5-1.7-1.2c0-0.4,0.2-0.7,0.5-1c-1.5-0.2-2.5-1.2-2.5-2.7
			c0-1.7,1.2-2.8,2.9-2.8c1.7,0,2.8,1.1,2.8,2.8c0,0.2,0,0.4,0,0.5h-3.8c0.1,0.6,0.6,0.8,1.2,0.8c0.4,0,0.9-0.2,1.2-0.5l1.2,1
			c-0.3,0.3-0.6,0.5-1,0.6c-0.7,0.3-0.8,0.6-0.8,0.8c0,0.2,0.1,0.3,0.4,0.3c0.2,0,0.4-0.1,0.5-0.2L76.2,47.1z M72.7,42.3h2.1
			c-0.1-0.5-0.5-0.8-1-0.8C73.1,41.5,72.8,41.8,72.7,42.3z"/>
		<polygon fill="#FFB819" points="88.2,28.3 86,28.3 84.7,30 84.2,30 84.2,28.2 82.4,28.2 82.4,33.6 84.2,33.6 84.2,31.5 84.6,31.5 
			86,33.6 88.2,33.6 86.1,30.8 		"/>
		<path fill="#FFB819" d="M34.4,31.3v-0.6c0-0.7,0.4-1,0.9-1c0.6,0,0.9,0.4,0.9,1v0.6H38v-1.2c0-1.2-0.9-2-2-2
			c-0.8,0-1.3,0.3-1.7,0.8v-0.7h-1.7v3H34.4z"/>
		<polygon fill="#FFB819" points="33.2,43.4 35.5,43.4 37.4,41.4 37.4,40.2 32.7,40.2 31.9,41.7 34.9,41.7 		"/>
		<g>
			<g>
				<path fill="#FFB819" d="M12.5,35.9h-0.3V37h-0.8v-3h0.8v1.2h0.3l0.9-1.2h0.9l-1.2,1.4l1.3,1.5h-0.9L12.5,35.9z"/>
				<path fill="#FFB819" d="M16.8,37h-0.7v-0.2c-0.1,0.2-0.3,0.3-0.6,0.3c-0.6,0-1-0.5-1-1.1c0-0.6,0.4-1.1,1-1.1
					c0.3,0,0.5,0.1,0.6,0.3V35h0.7V37z M15.2,36c0,0.3,0.2,0.5,0.5,0.5c0.3,0,0.5-0.2,0.5-0.5c0-0.3-0.2-0.5-0.5-0.5
					C15.4,35.5,15.2,35.7,15.2,36z"/>
				<path fill="#FFB819" d="M19.1,35.6h-0.8v0.6c0,0.2,0.1,0.3,0.3,0.3c0.1,0,0.3-0.1,0.4-0.1l0.2,0.5c-0.2,0.1-0.4,0.2-0.8,0.2
					c-0.6,0-0.9-0.3-0.9-0.9v-0.7h-0.4V35h0.4v-0.6h0.7V35h0.8V35.6z"/>
				<path fill="#FFB819" d="M22,36c0,0.6-0.5,1.1-1.2,1.1c-0.7,0-1.2-0.5-1.2-1.1c0-0.6,0.5-1.1,1.2-1.1C21.5,34.9,22,35.4,22,36z
					 M20.3,36c0,0.3,0.2,0.5,0.5,0.5c0.3,0,0.5-0.2,0.5-0.5s-0.2-0.5-0.5-0.5C20.5,35.5,20.3,35.7,20.3,36z"/>
				<path fill="#FFB819" d="M25,36.3l0.4-1.3h0.7L25.4,37h-0.8l-0.4-1.2L23.7,37H23L22.2,35H23l0.4,1.3l0.4-1.3h0.7L25,36.3z"/>
				<path fill="#FFB819" d="M27.3,34.3c0,0.2-0.2,0.4-0.4,0.4c-0.2,0-0.4-0.2-0.4-0.4c0-0.2,0.2-0.4,0.4-0.4
					C27.1,33.9,27.3,34.1,27.3,34.3z M27.3,37h-0.7V35h0.7V37z"/>
				<path fill="#FFB819" d="M29.9,35.4l-0.6,0.4c-0.1-0.1-0.2-0.2-0.4-0.2c-0.2,0-0.5,0.2-0.5,0.5c0,0.3,0.2,0.5,0.5,0.5
					c0.2,0,0.3-0.1,0.4-0.2l0.5,0.4c-0.2,0.3-0.5,0.5-0.9,0.5c-0.7,0-1.2-0.5-1.2-1.1c0-0.6,0.5-1.1,1.2-1.1
					C29.4,34.9,29.7,35.1,29.9,35.4z"/>
				<path fill="#FFB819" d="M32.4,36c0,0.1,0,0.2,0,0.2h-1.5c0.1,0.2,0.2,0.3,0.5,0.3c0.2,0,0.3-0.1,0.5-0.2l0.5,0.4
					c-0.2,0.2-0.6,0.3-1,0.3c-0.7,0-1.2-0.4-1.2-1.1c0-0.7,0.5-1.1,1.1-1.1C32,34.9,32.4,35.4,32.4,36z M30.9,35.8h0.8
					c-0.1-0.2-0.2-0.3-0.4-0.3C31.1,35.5,31,35.6,30.9,35.8z"/>
			</g>
			<g>
				<g>
					<path fill="#FFB819" d="M35.7,37.1H35v-1.9l-0.6,0.2v-0.6l1.3-0.5V37.1z"/>
					<path fill="#FFB819" d="M38.5,35.1c0,0.3-0.2,0.5-0.4,0.6c0.3,0.1,0.5,0.3,0.5,0.6c0,0.5-0.5,0.8-1.1,0.8
						c-0.6,0-1.1-0.3-1.1-0.8c0-0.3,0.2-0.5,0.5-0.6c-0.2-0.1-0.4-0.3-0.4-0.6c0-0.5,0.5-0.8,1.1-0.8C38,34.3,38.5,34.6,38.5,35.1z
						 M37,36.3c0,0.2,0.2,0.3,0.4,0.3c0.2,0,0.4-0.1,0.4-0.3c0-0.2-0.2-0.3-0.4-0.3C37.2,35.9,37,36,37,36.3z M37,35.1
						c0,0.2,0.2,0.3,0.4,0.3c0.2,0,0.4-0.1,0.4-0.3c0-0.2-0.2-0.3-0.4-0.3C37.2,34.9,37,35,37,35.1z"/>
					<path fill="#FFB819" d="M40.1,35.3C40.1,35.3,40.1,35.3,40.1,35.3c0.7,0,1.1,0.4,1.1,0.9c0,0.5-0.5,0.9-1.1,0.9
						c-0.6,0-1.1-0.4-1.1-0.9c0-0.3,0.1-0.5,0.3-0.8l0.8-1.1h0.8L40.1,35.3z M39.6,36.2c0,0.2,0.2,0.4,0.4,0.4
						c0.2,0,0.4-0.2,0.4-0.4c0-0.2-0.2-0.4-0.4-0.4C39.8,35.8,39.6,36,39.6,36.2z"/>
					<path fill="#FFB819" d="M43.4,34.9h-1.1l0,0.4h0.3c0.7,0,1,0.3,1,0.8c0,0.6-0.5,0.9-1.1,0.9c-0.4,0-0.8-0.2-1-0.4l0.3-0.5
						c0.1,0.1,0.4,0.3,0.7,0.3c0.3,0,0.4-0.1,0.4-0.3c0-0.2-0.1-0.3-0.5-0.3h-0.7l0-1.5h1.7V34.9z"/>
				</g>
				<path fill="#FFB819" d="M44.9,34.8h0.7l0.5,0.9l-0.5,0.9h-0.7l0.5-0.9L44.9,34.8z"/>
				<g>
					<path fill="#FFB819" d="M47.3,34.8c0.2-0.2,0.5-0.5,1-0.5c0.6,0,1,0.3,1,0.9c0,0.3-0.1,0.5-0.4,0.8l-0.5,0.5h1v0.6h-2v-0.5
						l1-0.9c0.1-0.1,0.2-0.3,0.2-0.4c0-0.2-0.2-0.3-0.4-0.3c-0.3,0-0.4,0.1-0.6,0.3L47.3,34.8z"/>
					<path fill="#FFB819" d="M52.2,35.7c0,0.9-0.6,1.4-1.3,1.4c-0.7,0-1.3-0.5-1.3-1.4c0-0.9,0.6-1.4,1.3-1.4
						C51.7,34.3,52.2,34.8,52.2,35.7z M50.4,35.7c0,0.5,0.2,0.8,0.6,0.8c0.3,0,0.6-0.3,0.6-0.8c0-0.5-0.3-0.8-0.6-0.8
						C50.7,34.9,50.4,35.2,50.4,35.7z"/>
					<path fill="#FFB819" d="M53.9,37.1h-0.7v-1.9l-0.6,0.2v-0.6l1.3-0.5V37.1z"/>
					<path fill="#FFB819" d="M56.3,34.9h-1.1l0,0.4h0.3c0.7,0,1,0.3,1,0.8c0,0.6-0.5,0.9-1.1,0.9c-0.4,0-0.8-0.2-1-0.4l0.3-0.5
						c0.1,0.1,0.4,0.3,0.7,0.3c0.3,0,0.4-0.1,0.4-0.3c0-0.2-0.1-0.3-0.5-0.3h-0.7l0-1.5h1.7V34.9z"/>
				</g>
			</g>
		</g>
		<path fill="#FFB819" d="M42,31.3c0-0.1-0.1-0.3-0.1-0.4c0-0.7,0.5-1.2,1.2-1.2c0.7,0,1.2,0.5,1.2,1.2c0,0.1,0,0.3-0.1,0.4h1.8v-3
			h-1.7v0.6c-0.3-0.4-0.9-0.7-1.6-0.7c-1.5,0-2.6,1.2-2.6,2.8c0,0.1,0,0.3,0,0.4H42z"/>
		<path fill="#FFB819" d="M56,28.1c-0.7,0-1.2,0.2-1.5,0.8v-0.6h-1.7v3h1.8v-0.6c0-0.7,0.4-1,1-1c0.3,0,0.7,0.1,0.9,0.1l0.2-1.7
			C56.5,28.2,56.3,28.1,56,28.1z"/>
		<path fill="#FFB819" d="M41.7,43.4v-0.7c0-0.7,0.4-1,0.9-1c0.6,0,0.9,0.4,0.9,1v0.8h1.8v-0.7c0-0.7,0.4-1,0.9-1
			c0.6,0,0.9,0.4,0.9,1v0.8H49V42c0-1.2-0.8-2-2.1-2c-0.8,0-1.4,0.3-1.8,0.9c-0.3-0.6-1-0.9-1.7-0.9c-0.8,0-1.3,0.3-1.7,0.8v-0.7
			h-1.7v3.2H41.7z"/>
		<rect x="51.4" y="40.2" fill="#FFB819" width="1.8" height="3.2"/>
	</g>
</g>
</a>
</svg>
