<?xml version="1.0" encoding="utf-8"?>
<!-- Generator: Adobe Illustrator 18.1.1, SVG Export Plug-In . SVG Version: 6.00 Build 0)  -->
<svg version="1.1" id="Layer_1" xmlns="http://www.w3.org/2000/svg" xmlns:xlink="http://www.w3.org/1999/xlink" x="0px" y="0px"
	 viewBox="0 0 43 42.4" enable-background="new 0 0 43 42.4" xml:space="preserve">
<path id="kolo" fill="#FFB718" d="M30,2.9c-3.9,0-7.1,3.2-7.1,7.1c0,3.9,3.2,7.1,7.1,7.1c3.9,0,7.1-3.2,7.1-7.1C37.1,6.1,33.9,2.9,30,2.9z
	 M34.1,6.1l-2.3,1.7c-0.3-0.2-0.7-0.4-1.1-0.5V4.4C32,4.5,33.2,5.2,34.1,6.1z M29.3,4.4v2.9c-0.4,0.1-0.8,0.3-1.1,0.5l-2.3-1.7
	C26.8,5.2,28,4.5,29.3,4.4z M24.3,10c0-1,0.3-2,0.7-2.8l2.3,1.7c-0.1,0.3-0.2,0.7-0.2,1.1c0,0.4,0.1,0.7,0.2,1.1l-2.3,1.7
	C24.6,12,24.3,11,24.3,10z M25.9,13.9l2.3-1.7c0.3,0.2,0.7,0.4,1.1,0.5v2.9C28,15.5,26.8,14.8,25.9,13.9z M30.7,15.6v-2.9
	c0.4-0.1,0.8-0.3,1.1-0.5l2.3,1.7C33.2,14.8,32,15.5,30.7,15.6z M34.9,12.8l-2.3-1.7c0.1-0.3,0.2-0.7,0.2-1.1c0-0.4-0.1-0.7-0.2-1.1
	l2.3-1.7C35.4,8,35.7,9,35.7,10S35.4,12,34.9,12.8z"/>
<polygon fill="#FFB718" points="12,4.8 12,2 9.9,2 6.4,5.5 6.4,11.9 7.8,13.3 10.6,13.3 12,11.9 12,9.9 19.6,10.8 19.4,7.9 12,7 "/>
<path fill="#FFB718" d="M38.5,20.6v-5l-1.3-1.2c-1.5,2.4-4.2,4-7.2,4c-4.7,0-8.5-3.8-8.5-8.5c0-2.2,0.8-4.2,2.2-5.7h-5v3v2.8v4.1
	h-2.8v6.4h-3.1v-4.3l-2.1-2.1H7.8l-2.1,2.1v4.3H2.8V22h38.5v-1.4H38.5z"/>
<g>
	<path fill="#FFB718" d="M8.7,35.9H3.5v-7h1.7v5.5h3.5V35.9z"/>
	<path fill="#FFB718" d="M14.4,33.5c0,1.5-1.1,2.6-2.7,2.6c-1.5,0-2.7-1.1-2.7-2.6s1.1-2.6,2.7-2.6C13.3,30.9,14.4,32,14.4,33.5z
		 M10.7,33.5c0,0.7,0.5,1.1,1.1,1.1c0.6,0,1.1-0.5,1.1-1.1c0-0.7-0.5-1.1-1.1-1.1C11.1,32.4,10.7,32.8,10.7,33.5z"/>
	<path fill="#FFB718" d="M20.2,35.9h-1.5v-0.5c-0.3,0.4-0.7,0.7-1.4,0.7c-1.3,0-2.3-1.1-2.3-2.6c0-1.4,1-2.6,2.3-2.6
		c0.7,0,1.1,0.3,1.4,0.7V31h1.5V35.9z M16.6,33.5c0,0.6,0.4,1.1,1,1.1c0.6,0,1.1-0.5,1.1-1.1c0-0.7-0.4-1.1-1.1-1.1
		C17,32.4,16.6,32.8,16.6,33.5z"/>
	<path fill="#FFB718" d="M24.7,31.5v-2.8h1.6v7.2h-1.5v-0.5c-0.3,0.4-0.7,0.7-1.4,0.7c-1.3,0-2.3-1.1-2.3-2.6c0-1.4,1-2.6,2.3-2.6
		C24,30.9,24.4,31.1,24.7,31.5z M22.7,33.5c0,0.6,0.4,1.1,1,1.1c0.6,0,1.1-0.5,1.1-1.1c0-0.7-0.4-1.1-1.1-1.1
		C23.1,32.4,22.7,32.8,22.7,33.5z"/>
	<path fill="#FFB718" d="M29,29.5c0,0.5-0.4,0.9-0.9,0.9c-0.5,0-0.9-0.4-0.9-0.9c0-0.5,0.4-0.9,0.9-0.9C28.6,28.6,29,29,29,29.5z
		 M28.9,35.9h-1.6V31h1.6V35.9z"/>
	<path fill="#FFB718" d="M34.7,32.7v3.2h-1.6v-2.7c0-0.6-0.3-0.9-0.8-0.9c-0.4,0-0.8,0.3-0.8,0.9v2.6H30V31h1.5v0.6
		c0.3-0.5,0.8-0.8,1.5-0.8C33.9,30.9,34.7,31.6,34.7,32.7z"/>
	<path fill="#FFB718" d="M39.1,31.5V31h1.5v4.4c0,1.6-1.1,2.6-2.7,2.6c-0.8,0-1.7-0.2-2.2-0.6l0.6-1.2c0.5,0.3,1,0.5,1.6,0.5
		c0.6,0,1.2-0.3,1.2-1.1v-0.3c-0.3,0.4-0.7,0.6-1.4,0.6c-1.3,0-2.3-1.1-2.3-2.5s1-2.5,2.3-2.5C38.4,30.9,38.9,31.2,39.1,31.5z
		 M37.1,33.4c0,0.6,0.4,1.1,1,1.1c0.6,0,1-0.4,1-1.1s-0.4-1.1-1-1.1C37.5,32.3,37.1,32.8,37.1,33.4z"/>
</g>
	<animateTransform
			xlink:href="#kolo"
            attributeName="transform"
            begin="0s"
            dur="2s"
            type="rotate"
            from="0 30 10"
            to="360 30 10"
            repeatCount="indefinite"
    />
</svg>
